<?xml version="1.0" encoding="utf-8" ?>
<!DOCTYPE SVG PUBLIC "-//W3C//DTD SVG 1.1//EN" "http://www.w3.org/Graphics/SVG/1.1/DTD/svg11.dtd">
<svg version="1.1" id="mark-small" xmlns="http://www.w3.org/2000/svg" xmlns:xlink="http://www.w3.org/1999/xlink" x="0px" y="0px" width="134px" height="26px" viewBox="0 0 134 26" enable-background="new 0 0 134 26" xml:space="preserve">
<g>
<path fill="#ffffff" d="M16.943,20.232c-1.566,0-3.431-0.531-3.946-4.673c-0.573-4.572-1.508-4.805-4.129-4.805H6.825v6.951
c0,1.238,0.465,1.636,1.916,1.636h1.144v0.635H1.103v-0.635h1.015c1.447,0,1.887-0.384,1.887-1.636V2.543
c0-1.245-0.423-1.604-1.887-1.604H1.103v-0.63l8.642,0c5.053,0,7.835,1.774,7.835,4.995c0,2.687-2.067,4.535-5.828,5.217
c1.356,0.525,2.721,1.406,3.678,3.913c1.237,3.248,1.738,3.769,2.712,3.769c0.203,0,0.386-0.08,0.542-0.239
c0.265-0.269,0.576-0.896,0.556-2.36l-0.001-0.104h0.667l0.008,0.095c0.139,1.664-0.182,2.971-0.926,3.778
C18.471,19.935,17.764,20.232,16.943,20.232z M9.719,10.125c3.93,0,4.755-2.576,4.755-4.735c0-2.201-0.587-4.451-4.941-4.451H8.74
c-1.485,0-1.916,0.354-1.916,1.577v7.609H9.719z" />
<path fill="#ffffff" d="M26.95,20.438c-3.631,0-5.976-2.735-5.976-6.967c0-4.439,3.102-7.092,6.1-7.092
c3.522,0,5.423,3.096,5.423,6.009c0,0.098-0.034,0.778-0.063,0.944l-0.015,0.083H23.71c0.028,3.6,1.525,5.829,3.92,5.829
c2.25,0,3.436-1.058,4.524-2.646l0.059-0.086l0.503,0.361l-0.048,0.08C31.305,19.232,29.328,20.438,26.95,20.438z M28.25,12.718
c1.253,0,1.474-0.415,1.474-1.286c0-2.746-1.024-4.384-2.742-4.384c-1.963,0-3.152,2.065-3.269,5.669H28.25z" />
<path fill="#ffffff" d="M37.562,20.346c-2.218,0-3.596-1.178-3.596-3.071c0-2.609,2.139-4.043,8.165-5.463v-0.813
c0-2.653-0.931-3.888-2.931-3.888c-1.651,0-2.993,0.705-2.993,1.165c-0.008,0.017,0.005,0.021,0.056,0.021
c0.661,0,1.401,0.626,1.401,1.463c0,0.855-0.658,1.526-1.497,1.526c-0.878,0-1.492-0.653-1.492-1.587
c0-1.554,1.6-3.226,5.114-3.226c3.188,0,4.739,1.521,4.739,4.649v6.333c0,0.73,0.122,1.604,0.703,1.604
c0.659,0,0.953-0.71,0.98-2.372l0.002-0.1h0.637l-0.002,0.103c-0.067,3.164-1.275,3.59-2.449,3.59
c-0.697,0-1.271-0.221-1.659-0.638c-0.417-0.447-0.625-1.112-0.622-1.979C41.351,19.235,39.5,20.346,37.562,20.346z M42.131,12.512
c-4.751,0.988-5.396,2.694-5.396,4.234c0,1.427,0.792,2.312,2.066,2.312c1.536,0,3.33-1.164,3.33-4.446V12.512z" />
<path fill="#ffffff" d="M47.374,19.978v-0.642H47.6c1.314,0,1.599-0.312,1.599-1.756V2.845c0-1.44-0.284-1.75-1.599-1.75H47.25
V0.426l4.346-0.017V17.58c0,1.443,0.278,1.756,1.568,1.756h0.352v0.642H47.374z" />
<path fill="#ffffff" d="M60.307,20.438c-2.909,0-6.163-3.021-6.163-7.058c0-4.125,3.249-7.001,6.163-7.001
c3.614,0,6.133,3.654,6.133,6.933C66.439,17.392,63.202,20.438,60.307,20.438z M60.307,7.016c-2.898,0-3.33,3.967-3.33,6.332
c0,2.407,0.432,6.449,3.33,6.449c2.753,0,3.331-3.476,3.331-6.391C63.638,11.02,63.205,7.016,60.307,7.016z" />
<path fill="#ffffff" d="M73.269,20.281c-1.198,0-2.259-0.422-3.034-0.732c-0.47-0.188-0.875-0.348-1.14-0.348
c-0.425,0-0.786,0.348-1.021,0.981l-0.022,0.065h-0.483v-5.46h0.468l0.015,0.083c0.54,3.137,3.099,4.777,5.342,4.777
c1.755,0,3.027-1.012,3.027-2.406c0-1.348-0.953-1.837-4.013-2.716c-2.827-0.809-4.682-1.542-4.682-4.271
c0-2.225,1.656-3.72,4.123-3.72c1.054,0,1.786,0.278,2.376,0.502C74.651,7.2,75.022,7.34,75.407,7.34
c0.476,0,0.828-0.246,1.021-0.713l0.024-0.063h0.476v4.907h-0.462l-0.017-0.083c-0.504-2.6-2.325-4.215-4.757-4.215
c-1.427,0-2.462,0.918-2.462,2.184c0,1.381,1.136,1.822,3.728,2.501c4.169,1.107,4.96,2.398,4.96,4.393
C77.918,18.7,76.093,20.281,73.269,20.281z" />
<path fill="#ffffff" d="M85.335,20.438c-2.911,0-6.167-3.021-6.167-7.058c0-4.125,3.25-7.001,6.167-7.001
c3.615,0,6.135,3.654,6.135,6.933C91.47,17.392,88.23,20.438,85.335,20.438z M85.335,7.016c-2.898,0-3.332,3.967-3.332,6.332
c0,2.407,0.434,6.449,3.332,6.449c2.753,0,3.332-3.476,3.332-6.391C88.667,11.02,88.233,7.016,85.335,7.016z" />
<path fill="#ffffff" d="M91.234,25.312v-0.632h0.474c1.302,0,1.565-0.28,1.565-1.664V9.109c0-1.381-0.264-1.66-1.565-1.66h-0.315
V6.852l4.225-0.262l-0.086,2.948c1.126-2.042,2.527-3.036,4.277-3.036c2.666,0,5.516,2.763,5.516,6.878
c0,4.262-2.927,6.9-5.639,6.9c-1.755,0-3.145-1.008-4.138-2.998c0.036,0.688,0.099,2.057,0.099,3.424v2.31
c0,1.384,0.264,1.664,1.564,1.664h0.812v0.632H91.234z M99.508,7.201c-1.618,0-3.894,1.925-3.894,6.205
c0,3.29,1.787,6.178,3.824,6.178c2.684,0,3.084-3.85,3.084-6.146C102.522,11.109,102.131,7.201,99.508,7.201z" />
<path fill="#ffffff" d="M113.569,19.978v-0.642h0.413c1.314,0,1.599-0.29,1.599-1.632v-7.201c0-1.847-0.674-2.745-2.06-2.745
c-2.13,0-3.859,2.188-3.859,4.876v5.07c0,1.342,0.277,1.632,1.565,1.632h0.413v0.642h-6.267v-0.642h0.316
c1.181,0,1.571-0.237,1.571-1.632V2.678c0-1.392-0.277-1.692-1.571-1.692h-0.38V0.321l4.319,0.002v5.992l-0.142,3.752
c0.865-2.142,2.688-3.502,4.741-3.502c2.524,0,3.749,1.541,3.749,4.71v6.43c0,1.342,0.285,1.632,1.6,1.632h0.168v0.642H113.569z" />
<path fill="#ffffff" d="M121.986,25.62c-1.863,0-2.699-1.216-2.699-2.418c0-1.027,0.689-1.745,1.676-1.745
c0.821,0,1.373,0.724,1.373,1.397c0,0.594-0.235,0.919-0.464,1.16l-0.101,0.098c-0.132,0.121-0.21,0.193-0.21,0.352
c0,0.247,0.293,0.426,0.699,0.426c1.252,0,2.154-1.674,2.873-3.312l0.364-0.871L120.876,9.49c-0.576-1.431-0.989-1.954-2.174-2.042
l-0.096-0.007V6.846h6.427V7.44l-0.094,0.008c-0.673,0.059-1.483,0.251-1.516,0.833c-0.033,0.447,0.122,0.961,0.363,1.597
l2.969,7.853l2.685-7.048c0.271-0.687,0.581-1.549,0.581-2.126c0-0.714-0.436-1.014-1.607-1.108l-0.093-0.008V6.846h4.781v0.596
l-0.094,0.006c-1.283,0.089-1.606,0.761-2.108,2.041l-4.994,12.21c-0.115,0.261-0.228,0.502-0.34,0.729
C124.272,25.077,123.2,25.62,121.986,25.62z" />
</g>
</svg>